<?xml version="1.0" encoding="UTF-8" standalone="no"?>
<!DOCTYPE svg PUBLIC "-//W3C//DTD SVG 1.1//EN"
 "http://www.w3.org/Graphics/SVG/1.1/DTD/svg11.dtd">
<!-- Generated by graphviz version 2.43.0 (0)
 -->
<!-- Title: %3 Pages: 1 -->
<svg width="436pt" height="764pt"
 viewBox="0.00 0.00 436.00 764.00" xmlns="http://www.w3.org/2000/svg" xmlns:xlink="http://www.w3.org/1999/xlink">
<g id="graph0" class="graph" transform="scale(1 1) rotate(0) translate(4 760)">
<title>%3</title>
<polygon fill="white" stroke="transparent" points="-4,4 -4,-760 432,-760 432,4 -4,4"/>
<g id="clust1" class="cluster">
<title>cluster_inner</title>
<polygon fill="none" stroke="lightgrey" points="8,-239 8,-620 420,-620 420,-239 8,-239"/>
<text text-anchor="middle" x="214" y="-604.8" font-family="Times,serif" font-size="14.00">doorlopen van de seconden terwijl de minuut vast blijft</text>
</g>
<!-- start -->
<g id="node1" class="node">
<title>start</title>
<path fill="none" stroke="black" d="M256,-756C256,-756 226,-756 226,-756 220,-756 214,-750 214,-744 214,-744 214,-732 214,-732 214,-726 220,-720 226,-720 226,-720 256,-720 256,-720 262,-720 268,-726 268,-732 268,-732 268,-744 268,-744 268,-750 262,-756 256,-756"/>
<text text-anchor="middle" x="241" y="-734.3" font-family="Times,serif" font-size="14.00">start</text>
</g>
<!-- declareer_minuten -->
<g id="node2" class="node">
<title>declareer_minuten</title>
<polygon fill="none" stroke="green" points="366.5,-683 115.5,-683 115.5,-647 366.5,-647 366.5,-683"/>
<text text-anchor="middle" x="241" y="-661.3" font-family="Times,serif" font-size="14.00">declareer en initialiseer minuten</text>
</g>
<!-- start&#45;&gt;declareer_minuten -->
<g id="edge5" class="edge">
<title>start&#45;&gt;declareer_minuten</title>
<path fill="none" stroke="black" d="M241,-719.81C241,-711.79 241,-702.05 241,-693.07"/>
<polygon fill="black" stroke="black" points="244.5,-693.03 241,-683.03 237.5,-693.03 244.5,-693.03"/>
</g>
<!-- declareer_seconden -->
<g id="node6" class="node">
<title>declareer_seconden</title>
<polygon fill="none" stroke="green" points="365.5,-589 116.5,-589 116.5,-553 365.5,-553 365.5,-589"/>
<text text-anchor="middle" x="241" y="-567.3" font-family="Times,serif" font-size="14.00">declareer en initialiseer seconde</text>
</g>
<!-- declareer_minuten&#45;&gt;declareer_seconden -->
<g id="edge6" class="edge">
<title>declareer_minuten&#45;&gt;declareer_seconden</title>
<path fill="none" stroke="black" d="M241,-646.7C241,-633.46 241,-614.95 241,-599.66"/>
<polygon fill="black" stroke="black" points="244.5,-599.23 241,-589.23 237.5,-599.23 244.5,-599.23"/>
</g>
<!-- einde -->
<g id="node3" class="node">
<title>einde</title>
<path fill="none" stroke="black" d="M239,-36C239,-36 207,-36 207,-36 201,-36 195,-30 195,-24 195,-24 195,-12 195,-12 195,-6 201,0 207,0 207,0 239,0 239,0 245,0 251,-6 251,-12 251,-12 251,-24 251,-24 251,-30 245,-36 239,-36"/>
<text text-anchor="middle" x="223" y="-14.3" font-family="Times,serif" font-size="14.00">einde</text>
</g>
<!-- test_minuten -->
<g id="node4" class="node">
<title>test_minuten</title>
<polygon fill="none" stroke="red" points="223,-123 117.09,-105 223,-87 328.91,-105 223,-123"/>
<text text-anchor="middle" x="223" y="-101.3" font-family="Times,serif" font-size="14.00">minuten &lt; 60</text>
</g>
<!-- test_minuten&#45;&gt;einde -->
<g id="edge8" class="edge">
<title>test_minuten&#45;&gt;einde</title>
<path fill="none" stroke="black" d="M223,-86.8C223,-75.16 223,-59.55 223,-46.24"/>
<polygon fill="black" stroke="black" points="226.5,-46.18 223,-36.18 219.5,-46.18 226.5,-46.18"/>
<text text-anchor="middle" x="260.5" y="-57.8" font-family="Times,serif" font-size="14.00">nee (false)</text>
</g>
<!-- test_minuten&#45;&gt;declareer_seconden -->
<g id="edge11" class="edge">
<title>test_minuten&#45;&gt;declareer_seconden</title>
<path fill="none" stroke="black" d="M242.5,-119.98C257.96,-132.84 277,-153.46 277,-177 277,-499 277,-499 277,-499 277,-515.28 269.38,-531.62 261.14,-544.5"/>
<polygon fill="black" stroke="black" points="258.2,-542.61 255.44,-552.83 263.98,-546.56 258.2,-542.61"/>
<text text-anchor="middle" x="306" y="-334.3" font-family="Times,serif" font-size="14.00">ja (true)</text>
</g>
<!-- verhoog_minuten -->
<g id="node5" class="node">
<title>verhoog_minuten</title>
<polygon fill="none" stroke="green" points="238,-196 100,-196 100,-160 238,-160 238,-196"/>
<text text-anchor="middle" x="169" y="-174.3" font-family="Times,serif" font-size="14.00">verhoog minuten</text>
</g>
<!-- verhoog_minuten&#45;&gt;test_minuten -->
<g id="edge10" class="edge">
<title>verhoog_minuten&#45;&gt;test_minuten</title>
<path fill="none" stroke="black" d="M182.07,-159.81C189.09,-150.58 197.85,-139.07 205.46,-129.07"/>
<polygon fill="black" stroke="black" points="208.25,-131.18 211.51,-121.1 202.68,-126.94 208.25,-131.18"/>
</g>
<!-- toon_tijdstip -->
<g id="node7" class="node">
<title>toon_tijdstip</title>
<polygon fill="none" stroke="blue" points="249.21,-516 91.39,-516 50.79,-480 208.61,-480 249.21,-516"/>
<text text-anchor="middle" x="150" y="-494.3" font-family="Times,serif" font-size="14.00">toon tijdstip</text>
</g>
<!-- declareer_seconden&#45;&gt;toon_tijdstip -->
<g id="edge1" class="edge">
<title>declareer_seconden&#45;&gt;toon_tijdstip</title>
<path fill="none" stroke="black" d="M218.97,-552.81C207.23,-543.66 192.63,-532.26 179.88,-522.32"/>
<polygon fill="black" stroke="black" points="181.86,-519.42 171.83,-516.03 177.56,-524.94 181.86,-519.42"/>
</g>
<!-- pauzeer -->
<g id="node10" class="node">
<title>pauzeer</title>
<polygon fill="none" stroke="green" points="160,-443 86,-443 86,-407 160,-407 160,-443"/>
<text text-anchor="middle" x="123" y="-421.3" font-family="Times,serif" font-size="14.00">pauzeer</text>
</g>
<!-- toon_tijdstip&#45;&gt;pauzeer -->
<g id="edge2" class="edge">
<title>toon_tijdstip&#45;&gt;pauzeer</title>
<path fill="none" stroke="black" d="M143.46,-479.81C140.35,-471.62 136.55,-461.62 133.07,-452.48"/>
<polygon fill="black" stroke="black" points="136.3,-451.13 129.48,-443.03 129.76,-453.62 136.3,-451.13"/>
</g>
<!-- verhoog_seconden -->
<g id="node8" class="node">
<title>verhoog_seconden</title>
<polygon fill="none" stroke="green" points="178,-356 32,-356 32,-320 178,-320 178,-356"/>
<text text-anchor="middle" x="105" y="-334.3" font-family="Times,serif" font-size="14.00">verhoog seconden</text>
</g>
<!-- test -->
<g id="node9" class="node">
<title>test</title>
<polygon fill="none" stroke="red" points="137,-283 24.73,-265 137,-247 249.27,-265 137,-283"/>
<text text-anchor="middle" x="137" y="-261.3" font-family="Times,serif" font-size="14.00">seconden &lt; 60</text>
</g>
<!-- verhoog_seconden&#45;&gt;test -->
<g id="edge4" class="edge">
<title>verhoog_seconden&#45;&gt;test</title>
<path fill="none" stroke="black" d="M112.75,-319.81C116.59,-311.28 121.31,-300.81 125.56,-291.38"/>
<polygon fill="black" stroke="black" points="128.85,-292.61 129.76,-282.06 122.46,-289.73 128.85,-292.61"/>
</g>
<!-- test&#45;&gt;verhoog_minuten -->
<g id="edge9" class="edge">
<title>test&#45;&gt;verhoog_minuten</title>
<path fill="none" stroke="black" d="M143.17,-247.61C147.64,-235.73 153.79,-219.41 158.96,-205.67"/>
<polygon fill="black" stroke="black" points="162.27,-206.81 162.52,-196.21 155.72,-204.34 162.27,-206.81"/>
<text text-anchor="middle" x="191.5" y="-217.8" font-family="Times,serif" font-size="14.00">nee (false)</text>
</g>
<!-- test&#45;&gt;toon_tijdstip -->
<g id="edge7" class="edge">
<title>test&#45;&gt;toon_tijdstip</title>
<path fill="none" stroke="black" d="M155.73,-280.02C167.15,-289.8 180.71,-303.94 187,-320 207.1,-371.3 182.25,-435.45 164.64,-470.72"/>
<polygon fill="black" stroke="black" points="161.39,-469.38 159.9,-479.87 167.61,-472.59 161.39,-469.38"/>
<text text-anchor="middle" x="223" y="-377.8" font-family="Times,serif" font-size="14.00">ja (true)</text>
</g>
<!-- pauzeer&#45;&gt;verhoog_seconden -->
<g id="edge3" class="edge">
<title>pauzeer&#45;&gt;verhoog_seconden</title>
<path fill="none" stroke="black" d="M119.36,-406.8C116.89,-395.16 113.59,-379.55 110.77,-366.24"/>
<polygon fill="black" stroke="black" points="114.13,-365.23 108.64,-356.18 107.28,-366.68 114.13,-365.23"/>
</g>
</g>
</svg>
