<?xml version="1.0" encoding="UTF-8" standalone="no"?>
<!DOCTYPE svg PUBLIC "-//W3C//DTD SVG 1.1//EN"
 "http://www.w3.org/Graphics/SVG/1.1/DTD/svg11.dtd">
<!-- Generated by graphviz version 2.43.0 (0)
 -->
<!-- Title: %3 Pages: 1 -->
<svg width="436pt" height="691pt"
 viewBox="0.00 0.00 436.00 691.00" xmlns="http://www.w3.org/2000/svg" xmlns:xlink="http://www.w3.org/1999/xlink">
<g id="graph0" class="graph" transform="scale(1 1) rotate(0) translate(4 687)">
<title>%3</title>
<polygon fill="white" stroke="transparent" points="-4,4 -4,-687 432,-687 432,4 -4,4"/>
<g id="clust1" class="cluster">
<title>cluster_inner</title>
<polygon fill="none" stroke="lightgrey" points="8,-166 8,-547 420,-547 420,-166 8,-166"/>
<text text-anchor="middle" x="214" y="-531.8" font-family="Times,serif" font-size="14.00">doorlopen van de seconden terwijl de minuut vast blijft</text>
</g>
<!-- start -->
<g id="node1" class="node">
<title>start</title>
<path fill="none" stroke="black" d="M293,-683C293,-683 263,-683 263,-683 257,-683 251,-677 251,-671 251,-671 251,-659 251,-659 251,-653 257,-647 263,-647 263,-647 293,-647 293,-647 299,-647 305,-653 305,-659 305,-659 305,-671 305,-671 305,-677 299,-683 293,-683"/>
<text text-anchor="middle" x="278" y="-661.3" font-family="Times,serif" font-size="14.00">start</text>
</g>
<!-- declareer_minuten -->
<g id="node2" class="node">
<title>declareer_minuten</title>
<polygon fill="none" stroke="green" points="403.5,-610 152.5,-610 152.5,-574 403.5,-574 403.5,-610"/>
<text text-anchor="middle" x="278" y="-588.3" font-family="Times,serif" font-size="14.00">declareer en initialiseer minuten</text>
</g>
<!-- start&#45;&gt;declareer_minuten -->
<g id="edge5" class="edge">
<title>start&#45;&gt;declareer_minuten</title>
<path fill="none" stroke="black" d="M278,-646.81C278,-638.79 278,-629.05 278,-620.07"/>
<polygon fill="black" stroke="black" points="281.5,-620.03 278,-610.03 274.5,-620.03 281.5,-620.03"/>
</g>
<!-- declareer_seconden -->
<g id="node6" class="node">
<title>declareer_seconden</title>
<polygon fill="none" stroke="green" points="402.5,-516 153.5,-516 153.5,-480 402.5,-480 402.5,-516"/>
<text text-anchor="middle" x="278" y="-494.3" font-family="Times,serif" font-size="14.00">declareer en initialiseer seconde</text>
</g>
<!-- declareer_minuten&#45;&gt;declareer_seconden -->
<g id="edge6" class="edge">
<title>declareer_minuten&#45;&gt;declareer_seconden</title>
<path fill="none" stroke="black" d="M278,-573.7C278,-560.46 278,-541.95 278,-526.66"/>
<polygon fill="black" stroke="black" points="281.5,-526.23 278,-516.23 274.5,-526.23 281.5,-526.23"/>
</g>
<!-- einde -->
<g id="node3" class="node">
<title>einde</title>
<path fill="none" stroke="black" d="M131,-36C131,-36 99,-36 99,-36 93,-36 87,-30 87,-24 87,-24 87,-12 87,-12 87,-6 93,0 99,0 99,0 131,0 131,0 137,0 143,-6 143,-12 143,-12 143,-24 143,-24 143,-30 137,-36 131,-36"/>
<text text-anchor="middle" x="115" y="-14.3" font-family="Times,serif" font-size="14.00">einde</text>
</g>
<!-- test_minuten -->
<g id="node4" class="node">
<title>test_minuten</title>
<polygon fill="none" stroke="red" points="133,-123 27.09,-105 133,-87 238.91,-105 133,-123"/>
<text text-anchor="middle" x="133" y="-101.3" font-family="Times,serif" font-size="14.00">minuten &lt; 60</text>
</g>
<!-- test_minuten&#45;&gt;einde -->
<g id="edge9" class="edge">
<title>test_minuten&#45;&gt;einde</title>
<path fill="none" stroke="black" d="M123.7,-88.51C120.64,-82.62 117.61,-75.7 116,-69 114.28,-61.85 113.59,-53.97 113.43,-46.61"/>
<polygon fill="black" stroke="black" points="116.94,-46.39 113.53,-36.36 109.94,-46.32 116.94,-46.39"/>
<text text-anchor="middle" x="153.5" y="-57.8" font-family="Times,serif" font-size="14.00">nee (false)</text>
</g>
<!-- verhoog_minuten -->
<g id="node5" class="node">
<title>verhoog_minuten</title>
<polygon fill="none" stroke="green" points="327,-36 189,-36 189,0 327,0 327,-36"/>
<text text-anchor="middle" x="258" y="-14.3" font-family="Times,serif" font-size="14.00">verhoog minuten</text>
</g>
<!-- test_minuten&#45;&gt;verhoog_minuten -->
<g id="edge10" class="edge">
<title>test_minuten&#45;&gt;verhoog_minuten</title>
<path fill="none" stroke="black" d="M155.91,-90.88C166.71,-84.51 179.68,-76.61 191,-69 203.41,-60.66 216.67,-50.93 228.1,-42.29"/>
<polygon fill="black" stroke="black" points="230.23,-45.07 236.06,-36.22 225.99,-39.5 230.23,-45.07"/>
<text text-anchor="middle" x="240" y="-57.8" font-family="Times,serif" font-size="14.00">ja (true)</text>
</g>
<!-- verhoog_minuten&#45;&gt;declareer_seconden -->
<g id="edge11" class="edge">
<title>verhoog_minuten&#45;&gt;declareer_seconden</title>
<path fill="none" stroke="black" d="M267.17,-36.04C275.33,-52.83 286,-79.45 286,-104 286,-426 286,-426 286,-426 286,-440.44 284.35,-456.43 282.54,-469.57"/>
<polygon fill="black" stroke="black" points="279.02,-469.44 281.02,-479.84 285.95,-470.46 279.02,-469.44"/>
</g>
<!-- toon_tijdstip -->
<g id="node7" class="node">
<title>toon_tijdstip</title>
<polygon fill="none" stroke="blue" points="258.21,-443 100.39,-443 59.79,-407 217.61,-407 258.21,-443"/>
<text text-anchor="middle" x="159" y="-421.3" font-family="Times,serif" font-size="14.00">toon tijdstip</text>
</g>
<!-- declareer_seconden&#45;&gt;toon_tijdstip -->
<g id="edge1" class="edge">
<title>declareer_seconden&#45;&gt;toon_tijdstip</title>
<path fill="none" stroke="black" d="M249.5,-479.99C233.57,-470.49 213.53,-458.54 196.36,-448.29"/>
<polygon fill="black" stroke="black" points="198.06,-445.23 187.68,-443.11 194.48,-451.24 198.06,-445.23"/>
</g>
<!-- pauzeer -->
<g id="node10" class="node">
<title>pauzeer</title>
<polygon fill="none" stroke="green" points="173,-370 99,-370 99,-334 173,-334 173,-370"/>
<text text-anchor="middle" x="136" y="-348.3" font-family="Times,serif" font-size="14.00">pauzeer</text>
</g>
<!-- toon_tijdstip&#45;&gt;pauzeer -->
<g id="edge2" class="edge">
<title>toon_tijdstip&#45;&gt;pauzeer</title>
<path fill="none" stroke="black" d="M153.43,-406.81C150.8,-398.7 147.61,-388.84 144.67,-379.78"/>
<polygon fill="black" stroke="black" points="147.93,-378.46 141.52,-370.03 141.27,-380.62 147.93,-378.46"/>
</g>
<!-- verhoog_seconden -->
<g id="node8" class="node">
<title>verhoog_seconden</title>
<polygon fill="none" stroke="green" points="182,-283 36,-283 36,-247 182,-247 182,-283"/>
<text text-anchor="middle" x="109" y="-261.3" font-family="Times,serif" font-size="14.00">verhoog seconden</text>
</g>
<!-- test -->
<g id="node9" class="node">
<title>test</title>
<polygon fill="none" stroke="red" points="133,-210 20.73,-192 133,-174 245.27,-192 133,-210"/>
<text text-anchor="middle" x="133" y="-188.3" font-family="Times,serif" font-size="14.00">seconden &lt; 60</text>
</g>
<!-- verhoog_seconden&#45;&gt;test -->
<g id="edge4" class="edge">
<title>verhoog_seconden&#45;&gt;test</title>
<path fill="none" stroke="black" d="M114.81,-246.81C117.62,-238.49 121.06,-228.33 124.18,-219.08"/>
<polygon fill="black" stroke="black" points="127.52,-220.13 127.41,-209.54 120.89,-217.89 127.52,-220.13"/>
</g>
<!-- test&#45;&gt;test_minuten -->
<g id="edge8" class="edge">
<title>test&#45;&gt;test_minuten</title>
<path fill="none" stroke="black" d="M133,-173.8C133,-162.16 133,-146.55 133,-133.24"/>
<polygon fill="black" stroke="black" points="136.5,-133.18 133,-123.18 129.5,-133.18 136.5,-133.18"/>
<text text-anchor="middle" x="170.5" y="-144.8" font-family="Times,serif" font-size="14.00">nee (false)</text>
</g>
<!-- test&#45;&gt;toon_tijdstip -->
<g id="edge7" class="edge">
<title>test&#45;&gt;toon_tijdstip</title>
<path fill="none" stroke="black" d="M154.95,-206.59C168.1,-216.09 183.64,-230.1 191,-247 212.87,-297.25 189.72,-361.79 172.99,-397.41"/>
<polygon fill="black" stroke="black" points="169.72,-396.13 168.49,-406.65 176.01,-399.19 169.72,-396.13"/>
<text text-anchor="middle" x="228" y="-304.8" font-family="Times,serif" font-size="14.00">ja (true)</text>
</g>
<!-- pauzeer&#45;&gt;verhoog_seconden -->
<g id="edge3" class="edge">
<title>pauzeer&#45;&gt;verhoog_seconden</title>
<path fill="none" stroke="black" d="M130.54,-333.8C126.8,-322.05 121.78,-306.24 117.53,-292.84"/>
<polygon fill="black" stroke="black" points="120.82,-291.65 114.46,-283.18 114.15,-293.77 120.82,-291.65"/>
</g>
</g>
</svg>
