<?xml version="1.0" encoding="UTF-8" standalone="no"?>
<!DOCTYPE svg PUBLIC "-//W3C//DTD SVG 1.1//EN"
 "http://www.w3.org/Graphics/SVG/1.1/DTD/svg11.dtd">
<!-- Generated by graphviz version 2.43.0 (0)
 -->
<!-- Title: %3 Pages: 1 -->
<svg width="386pt" height="131pt"
 viewBox="0.00 0.00 386.43 131.00" xmlns="http://www.w3.org/2000/svg" xmlns:xlink="http://www.w3.org/1999/xlink">
<g id="graph0" class="graph" transform="scale(1 1) rotate(0) translate(4 127)">
<title>%3</title>
<polygon fill="white" stroke="transparent" points="-4,4 -4,-127 382.43,-127 382.43,4 -4,4"/>
<!-- voorwaarde -->
<g id="node1" class="node">
<title>voorwaarde</title>
<polygon fill="none" stroke="red" points="138.43,-123 45.76,-105 138.43,-87 231.1,-105 138.43,-123"/>
<text text-anchor="middle" x="138.43" y="-101.3" font-family="Times,serif" font-size="14.00">voorwaarde</text>
</g>
<!-- inlus -->
<g id="node2" class="node">
<title>inlus</title>
<polygon fill="none" stroke="green" points="83.43,-36 29.43,-36 29.43,0 83.43,0 83.43,-36"/>
<text text-anchor="middle" x="56.43" y="-14.3" font-family="Times,serif" font-size="14.00">...</text>
</g>
<!-- voorwaarde&#45;&gt;inlus -->
<g id="edge1" class="edge">
<title>voorwaarde&#45;&gt;inlus</title>
<path fill="none" stroke="black" d="M86.06,-97.09C52.64,-91.48 13.73,-82.31 3.43,-69 -6.02,-56.79 5.59,-44.86 20.32,-35.71"/>
<polygon fill="black" stroke="black" points="22.25,-38.65 29.22,-30.67 18.8,-32.56 22.25,-38.65"/>
<text text-anchor="middle" x="18.93" y="-57.8" font-family="Times,serif" font-size="14.00">true</text>
</g>
<!-- nalus -->
<g id="node3" class="node">
<title>nalus</title>
<polygon fill="none" stroke="green" points="378.43,-36 234.43,-36 234.43,0 378.43,0 378.43,-36"/>
<text text-anchor="middle" x="306.43" y="-14.3" font-family="Times,serif" font-size="14.00">eerste stap na lus</text>
</g>
<!-- voorwaarde&#45;&gt;nalus -->
<g id="edge2" class="edge">
<title>voorwaarde&#45;&gt;nalus</title>
<path fill="none" stroke="black" d="M193,-97.49C217.62,-92.58 246.12,-84 268.43,-69 277.66,-62.79 285.56,-53.6 291.74,-44.78"/>
<polygon fill="black" stroke="black" points="294.8,-46.5 297.32,-36.21 288.93,-42.68 294.8,-46.5"/>
<text text-anchor="middle" x="300.43" y="-57.8" font-family="Times,serif" font-size="14.00">false</text>
</g>
<!-- inlus&#45;&gt;voorwaarde -->
<g id="edge3" class="edge">
<title>inlus&#45;&gt;voorwaarde</title>
<path fill="none" stroke="black" d="M52.41,-36.13C50.97,-46.49 51.04,-59.49 57.43,-69 64.24,-79.13 74.65,-86.35 85.77,-91.48"/>
<polygon fill="black" stroke="black" points="84.64,-94.8 95.22,-95.32 87.27,-88.31 84.64,-94.8"/>
<text text-anchor="middle" x="128.43" y="-57.8" font-family="Times,serif" font-size="14.00">bij } die de lus sluit</text>
</g>
<!-- inlus&#45;&gt;voorwaarde -->
<g id="edge4" class="edge">
<title>inlus&#45;&gt;voorwaarde</title>
<path fill="none" stroke="black" d="M83.62,-21.71C121.02,-26.06 185.31,-36 199.43,-54 209.94,-67.39 195.85,-79.57 178.58,-88.55"/>
<polygon fill="black" stroke="black" points="176.89,-85.48 169.37,-92.95 179.91,-91.8 176.89,-85.48"/>
<text text-anchor="middle" x="233.43" y="-57.8" font-family="Times,serif" font-size="14.00">continue</text>
</g>
</g>
</svg>
