<?xml version="1.0" encoding="UTF-8" standalone="no"?>
<!DOCTYPE svg PUBLIC "-//W3C//DTD SVG 1.1//EN"
 "http://www.w3.org/Graphics/SVG/1.1/DTD/svg11.dtd">
<!-- Generated by graphviz version 2.43.0 (0)
 -->
<!-- Title: %3 Pages: 1 -->
<svg width="194pt" height="218pt"
 viewBox="0.00 0.00 193.67 218.00" xmlns="http://www.w3.org/2000/svg" xmlns:xlink="http://www.w3.org/1999/xlink">
<g id="graph0" class="graph" transform="scale(1 1) rotate(0) translate(4 214)">
<title>%3</title>
<polygon fill="white" stroke="transparent" points="-4,4 -4,-214 189.67,-214 189.67,4 -4,4"/>
<!-- voorwaarde -->
<g id="node1" class="node">
<title>voorwaarde</title>
<polygon fill="none" stroke="red" points="92.83,-210 0.16,-192 92.83,-174 185.5,-192 92.83,-210"/>
<text text-anchor="middle" x="92.83" y="-188.3" font-family="Times,serif" font-size="14.00">voorwaarde</text>
</g>
<!-- inlus -->
<g id="node2" class="node">
<title>inlus</title>
<polygon fill="none" stroke="green" points="81.83,-123 27.83,-123 27.83,-87 81.83,-87 81.83,-123"/>
<text text-anchor="middle" x="54.83" y="-101.3" font-family="Times,serif" font-size="14.00">...</text>
</g>
<!-- voorwaarde&#45;&gt;inlus -->
<g id="edge1" class="edge">
<title>voorwaarde&#45;&gt;inlus</title>
<path fill="none" stroke="black" d="M68.86,-178.42C60.63,-172.76 52.36,-165.25 47.83,-156 44.45,-149.07 44.21,-141 45.37,-133.38"/>
<polygon fill="black" stroke="black" points="48.83,-133.97 47.64,-123.44 42,-132.41 48.83,-133.97"/>
<text text-anchor="middle" x="63.33" y="-144.8" font-family="Times,serif" font-size="14.00">true</text>
</g>
<!-- nalus -->
<g id="node3" class="node">
<title>nalus</title>
<polygon fill="none" stroke="green" points="158.83,-36 14.83,-36 14.83,0 158.83,0 158.83,-36"/>
<text text-anchor="middle" x="86.83" y="-14.3" font-family="Times,serif" font-size="14.00">eerste stap na lus</text>
</g>
<!-- voorwaarde&#45;&gt;nalus -->
<g id="edge2" class="edge">
<title>voorwaarde&#45;&gt;nalus</title>
<path fill="none" stroke="black" d="M97.29,-174.74C103.69,-148.84 113.68,-96.79 103.83,-54 103.18,-51.16 102.27,-48.29 101.2,-45.47"/>
<polygon fill="black" stroke="black" points="104.36,-43.96 97.11,-36.23 97.96,-46.79 104.36,-43.96"/>
<text text-anchor="middle" x="124.83" y="-101.3" font-family="Times,serif" font-size="14.00">false</text>
</g>
<!-- inlus&#45;&gt;voorwaarde -->
<g id="edge3" class="edge">
<title>inlus&#45;&gt;voorwaarde</title>
<path fill="none" stroke="black" d="M68.23,-123.13C72.06,-128.61 75.97,-134.86 78.83,-141 82.28,-148.38 85.04,-156.78 87.17,-164.57"/>
<polygon fill="black" stroke="black" points="83.78,-165.45 89.6,-174.3 90.57,-163.75 83.78,-165.45"/>
</g>
<!-- inlus&#45;&gt;nalus -->
<g id="edge4" class="edge">
<title>inlus&#45;&gt;nalus</title>
<path fill="none" stroke="black" d="M55.71,-86.84C56.66,-76.95 58.66,-64.45 62.83,-54 64.06,-50.92 65.6,-47.84 67.3,-44.86"/>
<polygon fill="black" stroke="black" points="70.34,-46.61 72.75,-36.3 64.43,-42.86 70.34,-46.61"/>
<text text-anchor="middle" x="83.33" y="-57.8" font-family="Times,serif" font-size="14.00">break</text>
</g>
</g>
</svg>
