<?xml version="1.0" encoding="UTF-8" standalone="no"?>
<!DOCTYPE svg PUBLIC "-//W3C//DTD SVG 1.1//EN"
 "http://www.w3.org/Graphics/SVG/1.1/DTD/svg11.dtd">
<!-- Generated by graphviz version 2.43.0 (0)
 -->
<!-- Title: %3 Pages: 1 -->
<svg width="407pt" height="604pt"
 viewBox="0.00 0.00 407.00 604.00" xmlns="http://www.w3.org/2000/svg" xmlns:xlink="http://www.w3.org/1999/xlink">
<g id="graph0" class="graph" transform="scale(1 1) rotate(0) translate(4 600)">
<title>%3</title>
<polygon fill="white" stroke="transparent" points="-4,4 -4,-600 403,-600 403,4 -4,4"/>
<g id="clust1" class="cluster">
<title>cluster_inner</title>
<polygon fill="none" stroke="lightgrey" points="8,-166 8,-460 358,-460 358,-166 8,-166"/>
<text text-anchor="middle" x="183" y="-444.8" font-family="Times,serif" font-size="14.00">vermenigvuldiging voor een vaste basis</text>
</g>
<!-- start -->
<g id="node1" class="node">
<title>start</title>
<path fill="none" stroke="black" d="M206,-596C206,-596 176,-596 176,-596 170,-596 164,-590 164,-584 164,-584 164,-572 164,-572 164,-566 170,-560 176,-560 176,-560 206,-560 206,-560 212,-560 218,-566 218,-572 218,-572 218,-584 218,-584 218,-590 212,-596 206,-596"/>
<text text-anchor="middle" x="191" y="-574.3" font-family="Times,serif" font-size="14.00">start</text>
</g>
<!-- declareer_basis -->
<g id="node2" class="node">
<title>declareer_basis</title>
<polygon fill="none" stroke="green" points="305,-523 77,-523 77,-487 305,-487 305,-523"/>
<text text-anchor="middle" x="191" y="-501.3" font-family="Times,serif" font-size="14.00">declareer en initialiseer basis</text>
</g>
<!-- start&#45;&gt;declareer_basis -->
<g id="edge4" class="edge">
<title>start&#45;&gt;declareer_basis</title>
<path fill="none" stroke="black" d="M191,-559.81C191,-551.79 191,-542.05 191,-533.07"/>
<polygon fill="black" stroke="black" points="194.5,-533.03 191,-523.03 187.5,-533.03 194.5,-533.03"/>
</g>
<!-- declareer_verm -->
<g id="node6" class="node">
<title>declareer_verm</title>
<polygon fill="none" stroke="green" points="350,-429 32,-429 32,-393 350,-393 350,-429"/>
<text text-anchor="middle" x="191" y="-407.3" font-family="Times,serif" font-size="14.00">declareer en initialiseer vermenigvuldiger</text>
</g>
<!-- declareer_basis&#45;&gt;declareer_verm -->
<g id="edge5" class="edge">
<title>declareer_basis&#45;&gt;declareer_verm</title>
<path fill="none" stroke="black" d="M191,-486.7C191,-473.46 191,-454.95 191,-439.66"/>
<polygon fill="black" stroke="black" points="194.5,-439.23 191,-429.23 187.5,-439.23 194.5,-439.23"/>
</g>
<!-- einde -->
<g id="node3" class="node">
<title>einde</title>
<path fill="none" stroke="black" d="M216,-36C216,-36 184,-36 184,-36 178,-36 172,-30 172,-24 172,-24 172,-12 172,-12 172,-6 178,0 184,0 184,0 216,0 216,0 222,0 228,-6 228,-12 228,-12 228,-24 228,-24 228,-30 222,-36 216,-36"/>
<text text-anchor="middle" x="200" y="-14.3" font-family="Times,serif" font-size="14.00">einde</text>
</g>
<!-- test_basis -->
<g id="node4" class="node">
<title>test_basis</title>
<polygon fill="none" stroke="red" points="200,-123 115.38,-105 200,-87 284.62,-105 200,-123"/>
<text text-anchor="middle" x="200" y="-101.3" font-family="Times,serif" font-size="14.00">basis &lt; 11</text>
</g>
<!-- test_basis&#45;&gt;einde -->
<g id="edge8" class="edge">
<title>test_basis&#45;&gt;einde</title>
<path fill="none" stroke="black" d="M200,-86.8C200,-75.16 200,-59.55 200,-46.24"/>
<polygon fill="black" stroke="black" points="203.5,-46.18 200,-36.18 196.5,-46.18 203.5,-46.18"/>
<text text-anchor="middle" x="237.5" y="-57.8" font-family="Times,serif" font-size="14.00">nee (false)</text>
</g>
<!-- verhoog_basis -->
<g id="node5" class="node">
<title>verhoog_basis</title>
<polygon fill="none" stroke="green" points="399,-36 283,-36 283,0 399,0 399,-36"/>
<text text-anchor="middle" x="341" y="-14.3" font-family="Times,serif" font-size="14.00">verhoog basis</text>
</g>
<!-- test_basis&#45;&gt;verhoog_basis -->
<g id="edge9" class="edge">
<title>test_basis&#45;&gt;verhoog_basis</title>
<path fill="none" stroke="black" d="M229.43,-93.11C244.7,-86.93 263.38,-78.53 279,-69 291.42,-61.42 304.1,-51.63 314.73,-42.72"/>
<polygon fill="black" stroke="black" points="317.1,-45.3 322.42,-36.14 312.55,-39.98 317.1,-45.3"/>
<text text-anchor="middle" x="329" y="-57.8" font-family="Times,serif" font-size="14.00">ja (true)</text>
</g>
<!-- verhoog_basis&#45;&gt;declareer_verm -->
<g id="edge10" class="edge">
<title>verhoog_basis&#45;&gt;declareer_verm</title>
<path fill="none" stroke="black" d="M353.53,-36.28C364.26,-52.82 378,-78.89 378,-104 378,-339 378,-339 378,-339 378,-360.8 333.01,-378.3 287.16,-390.47"/>
<polygon fill="black" stroke="black" points="286.2,-387.1 277.38,-392.98 287.94,-393.88 286.2,-387.1"/>
</g>
<!-- toon_product -->
<g id="node7" class="node">
<title>toon_product</title>
<polygon fill="none" stroke="blue" points="293.83,-356 130.25,-356 88.17,-320 251.75,-320 293.83,-356"/>
<text text-anchor="middle" x="191" y="-334.3" font-family="Times,serif" font-size="14.00">toon product</text>
</g>
<!-- declareer_verm&#45;&gt;toon_product -->
<g id="edge1" class="edge">
<title>declareer_verm&#45;&gt;toon_product</title>
<path fill="none" stroke="black" d="M191,-392.81C191,-384.79 191,-375.05 191,-366.07"/>
<polygon fill="black" stroke="black" points="194.5,-366.03 191,-356.03 187.5,-366.03 194.5,-366.03"/>
</g>
<!-- verhoog_verm -->
<g id="node8" class="node">
<title>verhoog_verm</title>
<polygon fill="none" stroke="green" points="239,-283 33,-283 33,-247 239,-247 239,-283"/>
<text text-anchor="middle" x="136" y="-261.3" font-family="Times,serif" font-size="14.00">verhoog vermenigvuldiger</text>
</g>
<!-- toon_product&#45;&gt;verhoog_verm -->
<g id="edge2" class="edge">
<title>toon_product&#45;&gt;verhoog_verm</title>
<path fill="none" stroke="black" d="M177.69,-319.81C171,-311.18 162.77,-300.56 155.39,-291.03"/>
<polygon fill="black" stroke="black" points="158.08,-288.79 149.19,-283.03 152.55,-293.08 158.08,-288.79"/>
</g>
<!-- test -->
<g id="node9" class="node">
<title>test</title>
<polygon fill="none" stroke="red" points="183,-210 15.93,-192 183,-174 350.07,-192 183,-210"/>
<text text-anchor="middle" x="183" y="-188.3" font-family="Times,serif" font-size="14.00">vermenigvuldiger &lt; 11</text>
</g>
<!-- verhoog_verm&#45;&gt;test -->
<g id="edge3" class="edge">
<title>verhoog_verm&#45;&gt;test</title>
<path fill="none" stroke="black" d="M147.38,-246.81C153.2,-238.01 160.39,-227.15 166.79,-217.49"/>
<polygon fill="black" stroke="black" points="169.77,-219.33 172.37,-209.06 163.93,-215.46 169.77,-219.33"/>
</g>
<!-- test&#45;&gt;test_basis -->
<g id="edge7" class="edge">
<title>test&#45;&gt;test_basis</title>
<path fill="none" stroke="black" d="M186.36,-174.21C188.75,-162.25 192.01,-145.96 194.74,-132.29"/>
<polygon fill="black" stroke="black" points="198.18,-132.96 196.71,-122.47 191.31,-131.59 198.18,-132.96"/>
<text text-anchor="middle" x="229.5" y="-144.8" font-family="Times,serif" font-size="14.00">nee (false)</text>
</g>
<!-- test&#45;&gt;toon_product -->
<g id="edge6" class="edge">
<title>test&#45;&gt;toon_product</title>
<path fill="none" stroke="black" d="M209.52,-207.25C223.77,-216.5 240.02,-230 248,-247 254.8,-261.48 254.32,-268.3 248,-283 242.99,-294.64 234.1,-304.95 224.82,-313.36"/>
<polygon fill="black" stroke="black" points="222.38,-310.83 216.99,-319.96 226.89,-316.18 222.38,-310.83"/>
<text text-anchor="middle" x="281" y="-261.3" font-family="Times,serif" font-size="14.00">ja (true)</text>
</g>
</g>
</svg>
