<?xml version="1.0" encoding="UTF-8" standalone="no"?>
<!DOCTYPE svg PUBLIC "-//W3C//DTD SVG 1.1//EN"
 "http://www.w3.org/Graphics/SVG/1.1/DTD/svg11.dtd">
<!-- Generated by graphviz version 2.43.0 (0)
 -->
<!-- Title: %3 Pages: 1 -->
<svg width="500pt" height="476pt"
 viewBox="0.00 0.00 500.00 476.00" xmlns="http://www.w3.org/2000/svg" xmlns:xlink="http://www.w3.org/1999/xlink">
<g id="graph0" class="graph" transform="scale(1 1) rotate(0) translate(4 472)">
<title>%3</title>
<polygon fill="white" stroke="transparent" points="-4,4 -4,-472 496,-472 496,4 -4,4"/>
<g id="clust1" class="cluster">
<title>cluster_inner</title>
<polygon fill="none" stroke="lightgrey" points="8,-166 8,-460 358,-460 358,-166 8,-166"/>
<text text-anchor="middle" x="183" y="-444.8" font-family="Times,serif" font-size="14.00">vermenigvuldiging voor een vaste basis</text>
</g>
<!-- start -->
<g id="node1" class="node">
<title>start</title>
<path fill="none" stroke="black" d="M448,-123C448,-123 418,-123 418,-123 412,-123 406,-117 406,-111 406,-111 406,-99 406,-99 406,-93 412,-87 418,-87 418,-87 448,-87 448,-87 454,-87 460,-93 460,-99 460,-99 460,-111 460,-111 460,-117 454,-123 448,-123"/>
<text text-anchor="middle" x="433" y="-101.3" font-family="Times,serif" font-size="14.00">start</text>
</g>
<!-- declareer_basis -->
<g id="node2" class="node">
<title>declareer_basis</title>
<polygon fill="none" stroke="green" points="492,-36 264,-36 264,0 492,0 492,-36"/>
<text text-anchor="middle" x="378" y="-14.3" font-family="Times,serif" font-size="14.00">declareer en initialiseer basis</text>
</g>
<!-- start&#45;&gt;declareer_basis -->
<g id="edge4" class="edge">
<title>start&#45;&gt;declareer_basis</title>
<path fill="none" stroke="black" d="M421.87,-86.8C414.04,-74.7 403.43,-58.3 394.61,-44.67"/>
<polygon fill="black" stroke="black" points="397.48,-42.67 389.11,-36.18 391.61,-46.47 397.48,-42.67"/>
</g>
<!-- declareer_verm -->
<g id="node5" class="node">
<title>declareer_verm</title>
<polygon fill="none" stroke="green" points="350,-429 32,-429 32,-393 350,-393 350,-429"/>
<text text-anchor="middle" x="191" y="-407.3" font-family="Times,serif" font-size="14.00">declareer en initialiseer vermenigvuldiger</text>
</g>
<!-- declareer_basis&#45;&gt;declareer_verm -->
<g id="edge5" class="edge">
<title>declareer_basis&#45;&gt;declareer_verm</title>
<path fill="none" stroke="black" d="M378,-36.26C378,-53.43 378,-80.54 378,-104 378,-339 378,-339 378,-339 378,-360.8 333.01,-378.3 287.16,-390.47"/>
<polygon fill="black" stroke="black" points="286.2,-387.1 277.38,-392.98 287.94,-393.88 286.2,-387.1"/>
</g>
<!-- einde -->
<g id="node3" class="node">
<title>einde</title>
<path fill="none" stroke="black" d="M214,-36C214,-36 182,-36 182,-36 176,-36 170,-30 170,-24 170,-24 170,-12 170,-12 170,-6 176,0 182,0 182,0 214,0 214,0 220,0 226,-6 226,-12 226,-12 226,-24 226,-24 226,-30 220,-36 214,-36"/>
<text text-anchor="middle" x="198" y="-14.3" font-family="Times,serif" font-size="14.00">einde</text>
</g>
<!-- test_basis -->
<g id="node4" class="node">
<title>test_basis</title>
<polygon fill="none" stroke="red" points="198,-123 113.38,-105 198,-87 282.62,-105 198,-123"/>
<text text-anchor="middle" x="198" y="-101.3" font-family="Times,serif" font-size="14.00">basis &lt; 11</text>
</g>
<!-- test_basis&#45;&gt;declareer_basis -->
<g id="edge9" class="edge">
<title>test_basis&#45;&gt;declareer_basis</title>
<path fill="none" stroke="black" d="M224.88,-92.57C240.25,-85.92 259.82,-77.24 277,-69 290.08,-62.72 293.03,-60.51 306,-54 314.76,-49.61 324.16,-44.98 333.17,-40.58"/>
<polygon fill="black" stroke="black" points="334.93,-43.62 342.39,-36.09 331.87,-37.32 334.93,-43.62"/>
<text text-anchor="middle" x="335" y="-57.8" font-family="Times,serif" font-size="14.00">ja (true)</text>
</g>
<!-- test_basis&#45;&gt;einde -->
<g id="edge8" class="edge">
<title>test_basis&#45;&gt;einde</title>
<path fill="none" stroke="black" d="M198,-86.8C198,-75.16 198,-59.55 198,-46.24"/>
<polygon fill="black" stroke="black" points="201.5,-46.18 198,-36.18 194.5,-46.18 201.5,-46.18"/>
<text text-anchor="middle" x="235.5" y="-57.8" font-family="Times,serif" font-size="14.00">nee (false)</text>
</g>
<!-- toon_product -->
<g id="node6" class="node">
<title>toon_product</title>
<polygon fill="none" stroke="blue" points="293.83,-356 130.25,-356 88.17,-320 251.75,-320 293.83,-356"/>
<text text-anchor="middle" x="191" y="-334.3" font-family="Times,serif" font-size="14.00">toon product</text>
</g>
<!-- declareer_verm&#45;&gt;toon_product -->
<g id="edge1" class="edge">
<title>declareer_verm&#45;&gt;toon_product</title>
<path fill="none" stroke="black" d="M191,-392.81C191,-384.79 191,-375.05 191,-366.07"/>
<polygon fill="black" stroke="black" points="194.5,-366.03 191,-356.03 187.5,-366.03 194.5,-366.03"/>
</g>
<!-- verhoog_verm -->
<g id="node7" class="node">
<title>verhoog_verm</title>
<polygon fill="none" stroke="green" points="239,-283 33,-283 33,-247 239,-247 239,-283"/>
<text text-anchor="middle" x="136" y="-261.3" font-family="Times,serif" font-size="14.00">verhoog vermenigvuldiger</text>
</g>
<!-- toon_product&#45;&gt;verhoog_verm -->
<g id="edge2" class="edge">
<title>toon_product&#45;&gt;verhoog_verm</title>
<path fill="none" stroke="black" d="M177.69,-319.81C171,-311.18 162.77,-300.56 155.39,-291.03"/>
<polygon fill="black" stroke="black" points="158.08,-288.79 149.19,-283.03 152.55,-293.08 158.08,-288.79"/>
</g>
<!-- test -->
<g id="node8" class="node">
<title>test</title>
<polygon fill="none" stroke="red" points="183,-210 15.93,-192 183,-174 350.07,-192 183,-210"/>
<text text-anchor="middle" x="183" y="-188.3" font-family="Times,serif" font-size="14.00">vermenigvuldiger &lt; 11</text>
</g>
<!-- verhoog_verm&#45;&gt;test -->
<g id="edge3" class="edge">
<title>verhoog_verm&#45;&gt;test</title>
<path fill="none" stroke="black" d="M147.38,-246.81C153.2,-238.01 160.39,-227.15 166.79,-217.49"/>
<polygon fill="black" stroke="black" points="169.77,-219.33 172.37,-209.06 163.93,-215.46 169.77,-219.33"/>
</g>
<!-- test&#45;&gt;test_basis -->
<g id="edge7" class="edge">
<title>test&#45;&gt;test_basis</title>
<path fill="none" stroke="black" d="M185.96,-174.21C188.05,-162.37 190.89,-146.28 193.29,-132.69"/>
<polygon fill="black" stroke="black" points="196.8,-132.93 195.09,-122.47 189.91,-131.71 196.8,-132.93"/>
<text text-anchor="middle" x="228.5" y="-144.8" font-family="Times,serif" font-size="14.00">nee (false)</text>
</g>
<!-- test&#45;&gt;toon_product -->
<g id="edge6" class="edge">
<title>test&#45;&gt;toon_product</title>
<path fill="none" stroke="black" d="M209.52,-207.25C223.77,-216.5 240.02,-230 248,-247 254.8,-261.48 254.32,-268.3 248,-283 242.99,-294.64 234.1,-304.95 224.82,-313.36"/>
<polygon fill="black" stroke="black" points="222.38,-310.83 216.99,-319.96 226.89,-316.18 222.38,-310.83"/>
<text text-anchor="middle" x="281" y="-261.3" font-family="Times,serif" font-size="14.00">ja (true)</text>
</g>
</g>
</svg>
