<?xml version="1.0" encoding="UTF-8" standalone="no"?>
<!DOCTYPE svg PUBLIC "-//W3C//DTD SVG 1.1//EN"
 "http://www.w3.org/Graphics/SVG/1.1/DTD/svg11.dtd">
<!-- Generated by graphviz version 2.43.0 (0)
 -->
<!-- Title: %3 Pages: 1 -->
<svg width="444pt" height="691pt"
 viewBox="0.00 0.00 444.00 691.00" xmlns="http://www.w3.org/2000/svg" xmlns:xlink="http://www.w3.org/1999/xlink">
<g id="graph0" class="graph" transform="scale(1 1) rotate(0) translate(4 687)">
<title>%3</title>
<polygon fill="white" stroke="transparent" points="-4,4 -4,-687 440,-687 440,4 -4,4"/>
<g id="clust1" class="cluster">
<title>cluster_inner</title>
<polygon fill="none" stroke="lightgrey" points="8,-239 8,-547 358,-547 358,-239 8,-239"/>
<text text-anchor="middle" x="183" y="-531.8" font-family="Times,serif" font-size="14.00">vermenigvuldiging voor een vaste basis</text>
</g>
<!-- start -->
<g id="node1" class="node">
<title>start</title>
<path fill="none" stroke="black" d="M206,-683C206,-683 176,-683 176,-683 170,-683 164,-677 164,-671 164,-671 164,-659 164,-659 164,-653 170,-647 176,-647 176,-647 206,-647 206,-647 212,-647 218,-653 218,-659 218,-659 218,-671 218,-671 218,-677 212,-683 206,-683"/>
<text text-anchor="middle" x="191" y="-661.3" font-family="Times,serif" font-size="14.00">start</text>
</g>
<!-- declareer_basis -->
<g id="node2" class="node">
<title>declareer_basis</title>
<polygon fill="none" stroke="green" points="305,-610 77,-610 77,-574 305,-574 305,-610"/>
<text text-anchor="middle" x="191" y="-588.3" font-family="Times,serif" font-size="14.00">declareer en initialiseer basis</text>
</g>
<!-- start&#45;&gt;declareer_basis -->
<g id="edge4" class="edge">
<title>start&#45;&gt;declareer_basis</title>
<path fill="none" stroke="black" d="M191,-646.81C191,-638.79 191,-629.05 191,-620.07"/>
<polygon fill="black" stroke="black" points="194.5,-620.03 191,-610.03 187.5,-620.03 194.5,-620.03"/>
</g>
<!-- declareer_verm -->
<g id="node6" class="node">
<title>declareer_verm</title>
<polygon fill="none" stroke="green" points="350,-516 32,-516 32,-480 350,-480 350,-516"/>
<text text-anchor="middle" x="191" y="-494.3" font-family="Times,serif" font-size="14.00">declareer en initialiseer vermenigvuldiger</text>
</g>
<!-- declareer_basis&#45;&gt;declareer_verm -->
<g id="edge5" class="edge">
<title>declareer_basis&#45;&gt;declareer_verm</title>
<path fill="none" stroke="black" d="M191,-573.7C191,-560.46 191,-541.95 191,-526.66"/>
<polygon fill="black" stroke="black" points="194.5,-526.23 191,-516.23 187.5,-526.23 194.5,-526.23"/>
</g>
<!-- einde -->
<g id="node3" class="node">
<title>einde</title>
<path fill="none" stroke="black" d="M337,-36C337,-36 305,-36 305,-36 299,-36 293,-30 293,-24 293,-24 293,-12 293,-12 293,-6 299,0 305,0 305,0 337,0 337,0 343,0 349,-6 349,-12 349,-12 349,-24 349,-24 349,-30 343,-36 337,-36"/>
<text text-anchor="middle" x="321" y="-14.3" font-family="Times,serif" font-size="14.00">einde</text>
</g>
<!-- test_basis -->
<g id="node4" class="node">
<title>test_basis</title>
<polygon fill="none" stroke="red" points="321,-123 236.38,-105 321,-87 405.62,-105 321,-123"/>
<text text-anchor="middle" x="321" y="-101.3" font-family="Times,serif" font-size="14.00">basis &lt; 11</text>
</g>
<!-- test_basis&#45;&gt;einde -->
<g id="edge7" class="edge">
<title>test_basis&#45;&gt;einde</title>
<path fill="none" stroke="black" d="M321,-86.8C321,-75.16 321,-59.55 321,-46.24"/>
<polygon fill="black" stroke="black" points="324.5,-46.18 321,-36.18 317.5,-46.18 324.5,-46.18"/>
<text text-anchor="middle" x="358.5" y="-57.8" font-family="Times,serif" font-size="14.00">nee (false)</text>
</g>
<!-- test_basis&#45;&gt;declareer_verm -->
<g id="edge10" class="edge">
<title>test_basis&#45;&gt;declareer_verm</title>
<path fill="none" stroke="black" d="M340.62,-118.99C357.1,-131.64 378,-152.5 378,-177 378,-426 378,-426 378,-426 378,-447.8 333.01,-465.3 287.16,-477.47"/>
<polygon fill="black" stroke="black" points="286.2,-474.1 277.38,-479.98 287.94,-480.88 286.2,-474.1"/>
<text text-anchor="middle" x="407" y="-304.8" font-family="Times,serif" font-size="14.00">ja (true)</text>
</g>
<!-- verhoog_basis -->
<g id="node5" class="node">
<title>verhoog_basis</title>
<polygon fill="none" stroke="green" points="322,-196 206,-196 206,-160 322,-160 322,-196"/>
<text text-anchor="middle" x="264" y="-174.3" font-family="Times,serif" font-size="14.00">verhoog basis</text>
</g>
<!-- verhoog_basis&#45;&gt;test_basis -->
<g id="edge9" class="edge">
<title>verhoog_basis&#45;&gt;test_basis</title>
<path fill="none" stroke="black" d="M277.8,-159.81C285.31,-150.45 294.71,-138.75 302.82,-128.65"/>
<polygon fill="black" stroke="black" points="305.72,-130.62 309.25,-120.63 300.26,-126.24 305.72,-130.62"/>
</g>
<!-- toon_product -->
<g id="node7" class="node">
<title>toon_product</title>
<polygon fill="none" stroke="blue" points="293.83,-443 130.25,-443 88.17,-407 251.75,-407 293.83,-443"/>
<text text-anchor="middle" x="191" y="-421.3" font-family="Times,serif" font-size="14.00">toon product</text>
</g>
<!-- declareer_verm&#45;&gt;toon_product -->
<g id="edge1" class="edge">
<title>declareer_verm&#45;&gt;toon_product</title>
<path fill="none" stroke="black" d="M191,-479.81C191,-471.79 191,-462.05 191,-453.07"/>
<polygon fill="black" stroke="black" points="194.5,-453.03 191,-443.03 187.5,-453.03 194.5,-453.03"/>
</g>
<!-- verhoog_verm -->
<g id="node8" class="node">
<title>verhoog_verm</title>
<polygon fill="none" stroke="green" points="239,-370 33,-370 33,-334 239,-334 239,-370"/>
<text text-anchor="middle" x="136" y="-348.3" font-family="Times,serif" font-size="14.00">verhoog vermenigvuldiger</text>
</g>
<!-- toon_product&#45;&gt;verhoog_verm -->
<g id="edge2" class="edge">
<title>toon_product&#45;&gt;verhoog_verm</title>
<path fill="none" stroke="black" d="M177.69,-406.81C171,-398.18 162.77,-387.56 155.39,-378.03"/>
<polygon fill="black" stroke="black" points="158.08,-375.79 149.19,-370.03 152.55,-380.08 158.08,-375.79"/>
</g>
<!-- test -->
<g id="node9" class="node">
<title>test</title>
<polygon fill="none" stroke="red" points="183,-283 15.93,-265 183,-247 350.07,-265 183,-283"/>
<text text-anchor="middle" x="183" y="-261.3" font-family="Times,serif" font-size="14.00">vermenigvuldiger &lt; 11</text>
</g>
<!-- verhoog_verm&#45;&gt;test -->
<g id="edge3" class="edge">
<title>verhoog_verm&#45;&gt;test</title>
<path fill="none" stroke="black" d="M145.51,-333.8C152.27,-321.58 161.45,-304.98 169.03,-291.26"/>
<polygon fill="black" stroke="black" points="172.21,-292.76 173.98,-282.31 166.08,-289.37 172.21,-292.76"/>
</g>
<!-- test&#45;&gt;verhoog_basis -->
<g id="edge8" class="edge">
<title>test&#45;&gt;verhoog_basis</title>
<path fill="none" stroke="black" d="M197.86,-248.41C209.73,-235.95 226.59,-218.26 240.31,-203.86"/>
<polygon fill="black" stroke="black" points="243.2,-205.9 247.57,-196.25 238.13,-201.07 243.2,-205.9"/>
<text text-anchor="middle" x="265.5" y="-217.8" font-family="Times,serif" font-size="14.00">nee (false)</text>
</g>
<!-- test&#45;&gt;toon_product -->
<g id="edge6" class="edge">
<title>test&#45;&gt;toon_product</title>
<path fill="none" stroke="black" d="M204.09,-280.87C219.5,-293.12 239.19,-312.02 248,-334 253.96,-348.85 254.32,-355.3 248,-370 242.99,-381.64 234.1,-391.95 224.82,-400.36"/>
<polygon fill="black" stroke="black" points="222.38,-397.83 216.99,-406.96 226.89,-403.18 222.38,-397.83"/>
<text text-anchor="middle" x="281" y="-348.3" font-family="Times,serif" font-size="14.00">ja (true)</text>
</g>
</g>
</svg>
