<?xml version="1.0" encoding="UTF-8" standalone="no"?>
<!DOCTYPE svg PUBLIC "-//W3C//DTD SVG 1.1//EN"
 "http://www.w3.org/Graphics/SVG/1.1/DTD/svg11.dtd">
<!-- Generated by graphviz version 2.43.0 (0)
 -->
<!-- Title: %3 Pages: 1 -->
<svg width="374pt" height="496pt"
 viewBox="0.00 0.00 374.00 496.00" xmlns="http://www.w3.org/2000/svg" xmlns:xlink="http://www.w3.org/1999/xlink">
<g id="graph0" class="graph" transform="scale(1 1) rotate(0) translate(4 492)">
<title>%3</title>
<polygon fill="white" stroke="transparent" points="-4,4 -4,-492 370,-492 370,4 -4,4"/>
<!-- start -->
<g id="node1" class="node">
<title>start</title>
<path fill="none" stroke="black" d="M222,-488C222,-488 192,-488 192,-488 186,-488 180,-482 180,-476 180,-476 180,-464 180,-464 180,-458 186,-452 192,-452 192,-452 222,-452 222,-452 228,-452 234,-458 234,-464 234,-464 234,-476 234,-476 234,-482 228,-488 222,-488"/>
<text text-anchor="middle" x="207" y="-466.3" font-family="Times,serif" font-size="14.00">start</text>
</g>
<!-- declareer_basis -->
<g id="node2" class="node">
<title>declareer_basis</title>
<polygon fill="none" stroke="green" points="321,-415 93,-415 93,-379 321,-379 321,-415"/>
<text text-anchor="middle" x="207" y="-393.3" font-family="Times,serif" font-size="14.00">declareer en initialiseer basis</text>
</g>
<!-- start&#45;&gt;declareer_basis -->
<g id="edge1" class="edge">
<title>start&#45;&gt;declareer_basis</title>
<path fill="none" stroke="black" d="M207,-451.81C207,-443.79 207,-434.05 207,-425.07"/>
<polygon fill="black" stroke="black" points="210.5,-425.03 207,-415.03 203.5,-425.03 210.5,-425.03"/>
</g>
<!-- declareer_verm -->
<g id="node3" class="node">
<title>declareer_verm</title>
<polygon fill="none" stroke="green" points="366,-342 48,-342 48,-306 366,-306 366,-342"/>
<text text-anchor="middle" x="207" y="-320.3" font-family="Times,serif" font-size="14.00">declareer en initialiseer vermenigvuldiger</text>
</g>
<!-- declareer_basis&#45;&gt;declareer_verm -->
<g id="edge2" class="edge">
<title>declareer_basis&#45;&gt;declareer_verm</title>
<path fill="none" stroke="black" d="M207,-378.81C207,-370.79 207,-361.05 207,-352.07"/>
<polygon fill="black" stroke="black" points="210.5,-352.03 207,-342.03 203.5,-352.03 210.5,-352.03"/>
</g>
<!-- toon_product -->
<g id="node4" class="node">
<title>toon_product</title>
<polygon fill="none" stroke="blue" points="309.83,-269 146.25,-269 104.17,-233 267.75,-233 309.83,-269"/>
<text text-anchor="middle" x="207" y="-247.3" font-family="Times,serif" font-size="14.00">toon product</text>
</g>
<!-- declareer_verm&#45;&gt;toon_product -->
<g id="edge3" class="edge">
<title>declareer_verm&#45;&gt;toon_product</title>
<path fill="none" stroke="black" d="M207,-305.81C207,-297.79 207,-288.05 207,-279.07"/>
<polygon fill="black" stroke="black" points="210.5,-279.03 207,-269.03 203.5,-279.03 210.5,-279.03"/>
</g>
<!-- verhoog_verm -->
<g id="node5" class="node">
<title>verhoog_verm</title>
<polygon fill="none" stroke="green" points="206,-196 0,-196 0,-160 206,-160 206,-196"/>
<text text-anchor="middle" x="103" y="-174.3" font-family="Times,serif" font-size="14.00">verhoog vermenigvuldiger</text>
</g>
<!-- toon_product&#45;&gt;verhoog_verm -->
<g id="edge4" class="edge">
<title>toon_product&#45;&gt;verhoog_verm</title>
<path fill="none" stroke="black" d="M182.09,-232.99C168.43,-223.67 151.3,-211.97 136.48,-201.86"/>
<polygon fill="black" stroke="black" points="138.3,-198.86 128.07,-196.11 134.35,-204.64 138.3,-198.86"/>
</g>
<!-- test -->
<g id="node6" class="node">
<title>test</title>
<polygon fill="none" stroke="red" points="172,-123 12.97,-105 172,-87 331.03,-105 172,-123"/>
<text text-anchor="middle" x="172" y="-101.3" font-family="Times,serif" font-size="14.00">vermenigvuldiger &lt; 4</text>
</g>
<!-- verhoog_verm&#45;&gt;test -->
<g id="edge5" class="edge">
<title>verhoog_verm&#45;&gt;test</title>
<path fill="none" stroke="black" d="M119.7,-159.81C128.73,-150.52 139.99,-138.93 149.75,-128.89"/>
<polygon fill="black" stroke="black" points="152.4,-131.19 156.86,-121.58 147.38,-126.31 152.4,-131.19"/>
</g>
<!-- test&#45;&gt;toon_product -->
<g id="edge6" class="edge">
<title>test&#45;&gt;toon_product</title>
<path fill="none" stroke="black" d="M188.82,-121.22C198.51,-131.18 209.78,-145.07 215,-160 222.13,-180.4 219.27,-204.9 215.11,-223.18"/>
<polygon fill="black" stroke="black" points="211.71,-222.34 212.65,-232.89 218.5,-224.06 211.71,-222.34"/>
<text text-anchor="middle" x="248" y="-174.3" font-family="Times,serif" font-size="14.00">ja (true)</text>
</g>
<!-- einde -->
<g id="node7" class="node">
<title>einde</title>
<path fill="none" stroke="black" d="M188,-36C188,-36 156,-36 156,-36 150,-36 144,-30 144,-24 144,-24 144,-12 144,-12 144,-6 150,0 156,0 156,0 188,0 188,0 194,0 200,-6 200,-12 200,-12 200,-24 200,-24 200,-30 194,-36 188,-36"/>
<text text-anchor="middle" x="172" y="-14.3" font-family="Times,serif" font-size="14.00">einde</text>
</g>
<!-- test&#45;&gt;einde -->
<g id="edge7" class="edge">
<title>test&#45;&gt;einde</title>
<path fill="none" stroke="black" d="M172,-86.8C172,-75.16 172,-59.55 172,-46.24"/>
<polygon fill="black" stroke="black" points="175.5,-46.18 172,-36.18 168.5,-46.18 175.5,-46.18"/>
<text text-anchor="middle" x="209.5" y="-57.8" font-family="Times,serif" font-size="14.00">nee (false)</text>
</g>
</g>
</svg>
