<?xml version="1.0" encoding="UTF-8" standalone="no"?>
<!DOCTYPE svg PUBLIC "-//W3C//DTD SVG 1.1//EN"
 "http://www.w3.org/Graphics/SVG/1.1/DTD/svg11.dtd">
<!-- Generated by graphviz version 2.43.0 (0)
 -->
<!-- Title: %3 Pages: 1 -->
<svg width="1012pt" height="778pt"
 viewBox="0.00 0.00 1012.42 778.00" xmlns="http://www.w3.org/2000/svg" xmlns:xlink="http://www.w3.org/1999/xlink">
<g id="graph0" class="graph" transform="scale(1 1) rotate(0) translate(4 774)">
<title>%3</title>
<polygon fill="white" stroke="transparent" points="-4,4 -4,-774 1008.42,-774 1008.42,4 -4,4"/>
<g id="clust1" class="cluster">
<title>cluster_inner</title>
<polygon fill="none" stroke="lightgrey" points="8,-239 8,-634 786,-634 786,-239 8,-239"/>
<text text-anchor="middle" x="397" y="-618.8" font-family="Times,serif" font-size="14.00">doorlopen van mogelijke bijgroenten</text>
</g>
<!-- start -->
<g id="node1" class="node">
<title>start</title>
<path fill="none" stroke="black" d="M536,-770C536,-770 506,-770 506,-770 500,-770 494,-764 494,-758 494,-758 494,-746 494,-746 494,-740 500,-734 506,-734 506,-734 536,-734 536,-734 542,-734 548,-740 548,-746 548,-746 548,-758 548,-758 548,-764 542,-770 536,-770"/>
<text text-anchor="middle" x="521" y="-748.3" font-family="Times,serif" font-size="14.00">start</text>
</g>
<!-- declareer_hoofdgroente -->
<g id="node2" class="node">
<title>declareer_hoofdgroente</title>
<polygon fill="none" stroke="green" points="664.5,-697 377.5,-697 377.5,-661 664.5,-661 664.5,-697"/>
<text text-anchor="middle" x="521" y="-675.3" font-family="Times,serif" font-size="14.00">declareer en initialiseer hoofdgroente</text>
</g>
<!-- start&#45;&gt;declareer_hoofdgroente -->
<g id="edge6" class="edge">
<title>start&#45;&gt;declareer_hoofdgroente</title>
<path fill="none" stroke="black" d="M521,-733.81C521,-725.79 521,-716.05 521,-707.07"/>
<polygon fill="black" stroke="black" points="524.5,-707.03 521,-697.03 517.5,-707.03 524.5,-707.03"/>
</g>
<!-- declareer_bijgroente -->
<g id="node6" class="node">
<title>declareer_bijgroente</title>
<polygon fill="none" stroke="green" points="653.5,-603 388.5,-603 388.5,-567 653.5,-567 653.5,-603"/>
<text text-anchor="middle" x="521" y="-581.3" font-family="Times,serif" font-size="14.00">declareer en initialiseer bijgroente</text>
</g>
<!-- declareer_hoofdgroente&#45;&gt;declareer_bijgroente -->
<g id="edge7" class="edge">
<title>declareer_hoofdgroente&#45;&gt;declareer_bijgroente</title>
<path fill="none" stroke="black" d="M521,-660.7C521,-647.46 521,-628.95 521,-613.66"/>
<polygon fill="black" stroke="black" points="524.5,-613.23 521,-603.23 517.5,-613.23 524.5,-613.23"/>
</g>
<!-- einde -->
<g id="node3" class="node">
<title>einde</title>
<path fill="none" stroke="black" d="M741,-36C741,-36 709,-36 709,-36 703,-36 697,-30 697,-24 697,-24 697,-12 697,-12 697,-6 703,0 709,0 709,0 741,0 741,0 747,0 753,-6 753,-12 753,-12 753,-24 753,-24 753,-30 747,-36 741,-36"/>
<text text-anchor="middle" x="725" y="-14.3" font-family="Times,serif" font-size="14.00">einde</text>
</g>
<!-- test_hoofdgroente -->
<g id="node4" class="node">
<title>test_hoofdgroente</title>
<polygon fill="none" stroke="red" points="725,-123 445.65,-105 725,-87 1004.35,-105 725,-123"/>
<text text-anchor="middle" x="725" y="-101.3" font-family="Times,serif" font-size="14.00">hoofdgroente &lt; (int) Groenten.Pompoen</text>
</g>
<!-- test_hoofdgroente&#45;&gt;einde -->
<g id="edge10" class="edge">
<title>test_hoofdgroente&#45;&gt;einde</title>
<path fill="none" stroke="black" d="M725,-86.8C725,-75.16 725,-59.55 725,-46.24"/>
<polygon fill="black" stroke="black" points="728.5,-46.18 725,-36.18 721.5,-46.18 728.5,-46.18"/>
<text text-anchor="middle" x="762.5" y="-57.8" font-family="Times,serif" font-size="14.00">nee (false)</text>
</g>
<!-- test_hoofdgroente&#45;&gt;declareer_bijgroente -->
<g id="edge12" class="edge">
<title>test_hoofdgroente&#45;&gt;declareer_bijgroente</title>
<path fill="none" stroke="black" d="M760.76,-120.9C782.46,-132.58 806,-151.19 806,-177 806,-513 806,-513 806,-513 806,-545.57 735.04,-563.31 663.93,-572.92"/>
<polygon fill="black" stroke="black" points="663.37,-569.46 653.9,-574.22 664.27,-576.4 663.37,-569.46"/>
<text text-anchor="middle" x="835" y="-334.3" font-family="Times,serif" font-size="14.00">ja (true)</text>
</g>
<!-- verhoog_hoofdgroente -->
<g id="node5" class="node">
<title>verhoog_hoofdgroente</title>
<polygon fill="none" stroke="green" points="732,-196 558,-196 558,-160 732,-160 732,-196"/>
<text text-anchor="middle" x="645" y="-174.3" font-family="Times,serif" font-size="14.00">verhoog hoofdgroente</text>
</g>
<!-- verhoog_hoofdgroente&#45;&gt;test_hoofdgroente -->
<g id="edge11" class="edge">
<title>verhoog_hoofdgroente&#45;&gt;test_hoofdgroente</title>
<path fill="none" stroke="black" d="M664.37,-159.81C674.89,-150.48 688.03,-138.81 699.39,-128.73"/>
<polygon fill="black" stroke="black" points="701.75,-131.31 706.91,-122.06 697.11,-126.08 701.75,-131.31"/>
</g>
<!-- beslis_combinatie -->
<g id="node7" class="node">
<title>beslis_combinatie</title>
<polygon fill="none" stroke="red" points="397,-530 15.6,-512 397,-494 778.4,-512 397,-530"/>
<text text-anchor="middle" x="397" y="-508.3" font-family="Times,serif" font-size="14.00">is het een combinatie van twee verschillende groenten?</text>
</g>
<!-- declareer_bijgroente&#45;&gt;beslis_combinatie -->
<g id="edge3" class="edge">
<title>declareer_bijgroente&#45;&gt;beslis_combinatie</title>
<path fill="none" stroke="black" d="M491.3,-566.99C473.94,-557.05 451.88,-544.42 433.47,-533.88"/>
<polygon fill="black" stroke="black" points="435.18,-530.83 424.76,-528.89 431.7,-536.9 435.18,-530.83"/>
</g>
<!-- toon_combinatie -->
<g id="node8" class="node">
<title>toon_combinatie</title>
<polygon fill="none" stroke="blue" points="399.67,-443 201.35,-443 150.33,-407 348.65,-407 399.67,-443"/>
<text text-anchor="middle" x="275" y="-421.3" font-family="Times,serif" font-size="14.00">toon combinatie</text>
</g>
<!-- beslis_combinatie&#45;&gt;toon_combinatie -->
<g id="edge1" class="edge">
<title>beslis_combinatie&#45;&gt;toon_combinatie</title>
<path fill="none" stroke="black" d="M374.05,-495.01C355.37,-481.99 328.75,-463.45 307.81,-448.86"/>
<polygon fill="black" stroke="black" points="309.72,-445.93 299.52,-443.08 305.72,-451.67 309.72,-445.93"/>
<text text-anchor="middle" x="349.5" y="-464.8" font-family="Times,serif" font-size="14.00">ja</text>
</g>
<!-- verhoog_bijgroente -->
<g id="node9" class="node">
<title>verhoog_bijgroente</title>
<polygon fill="none" stroke="green" points="487,-356 335,-356 335,-320 487,-320 487,-356"/>
<text text-anchor="middle" x="411" y="-334.3" font-family="Times,serif" font-size="14.00">verhoog bijgroente</text>
</g>
<!-- beslis_combinatie&#45;&gt;verhoog_bijgroente -->
<g id="edge2" class="edge">
<title>beslis_combinatie&#45;&gt;verhoog_bijgroente</title>
<path fill="none" stroke="black" d="M400.75,-494.05C403.59,-480.36 407.29,-460.54 409,-443 411.52,-417.13 411.84,-387.48 411.63,-366.48"/>
<polygon fill="black" stroke="black" points="415.13,-366.29 411.49,-356.35 408.13,-366.39 415.13,-366.29"/>
<text text-anchor="middle" x="424" y="-421.3" font-family="Times,serif" font-size="14.00">nee</text>
</g>
<!-- toon_combinatie&#45;&gt;verhoog_bijgroente -->
<g id="edge4" class="edge">
<title>toon_combinatie&#45;&gt;verhoog_bijgroente</title>
<path fill="none" stroke="black" d="M302.52,-406.8C323.35,-393.78 352.15,-375.78 374.84,-361.6"/>
<polygon fill="black" stroke="black" points="376.89,-364.44 383.52,-356.18 373.18,-358.51 376.89,-364.44"/>
</g>
<!-- test -->
<g id="node10" class="node">
<title>test</title>
<polygon fill="none" stroke="red" points="506,-283 246.6,-265 506,-247 765.4,-265 506,-283"/>
<text text-anchor="middle" x="506" y="-261.3" font-family="Times,serif" font-size="14.00">bijgroente &lt; (int) Groenten.Pompoen</text>
</g>
<!-- verhoog_bijgroente&#45;&gt;test -->
<g id="edge5" class="edge">
<title>verhoog_bijgroente&#45;&gt;test</title>
<path fill="none" stroke="black" d="M434,-319.81C446.91,-310.16 463.15,-298.02 476.94,-287.72"/>
<polygon fill="black" stroke="black" points="479.24,-290.37 485.16,-281.58 475.05,-284.76 479.24,-290.37"/>
</g>
<!-- test&#45;&gt;verhoog_hoofdgroente -->
<g id="edge9" class="edge">
<title>test&#45;&gt;verhoog_hoofdgroente</title>
<path fill="none" stroke="black" d="M531.17,-248.61C552.77,-235.4 584.18,-216.19 608.53,-201.3"/>
<polygon fill="black" stroke="black" points="610.45,-204.23 617.15,-196.03 606.79,-198.26 610.45,-204.23"/>
<text text-anchor="middle" x="620.5" y="-217.8" font-family="Times,serif" font-size="14.00">nee (false)</text>
</g>
<!-- test&#45;&gt;beslis_combinatie -->
<g id="edge8" class="edge">
<title>test&#45;&gt;beslis_combinatie</title>
<path fill="none" stroke="black" d="M506.36,-283.09C506.24,-301.58 504.53,-331.67 496,-356 478.31,-406.46 441.4,-457.23 417.98,-486.31"/>
<polygon fill="black" stroke="black" points="415.1,-484.31 411.48,-494.27 420.52,-488.75 415.1,-484.31"/>
<text text-anchor="middle" x="517" y="-377.8" font-family="Times,serif" font-size="14.00">ja (true)</text>
</g>
</g>
</svg>
