<?xml version="1.0" encoding="UTF-8" standalone="no"?>
<!DOCTYPE svg PUBLIC "-//W3C//DTD SVG 1.1//EN"
 "http://www.w3.org/Graphics/SVG/1.1/DTD/svg11.dtd">
<!-- Generated by graphviz version 2.43.0 (0)
 -->
<!-- Title: %3 Pages: 1 -->
<svg width="814pt" height="705pt"
 viewBox="0.00 0.00 814.00 705.00" xmlns="http://www.w3.org/2000/svg" xmlns:xlink="http://www.w3.org/1999/xlink">
<g id="graph0" class="graph" transform="scale(1 1) rotate(0) translate(4 701)">
<title>%3</title>
<polygon fill="white" stroke="transparent" points="-4,4 -4,-701 810,-701 810,4 -4,4"/>
<g id="clust1" class="cluster">
<title>cluster_inner</title>
<polygon fill="none" stroke="lightgrey" points="8,-166 8,-561 786,-561 786,-166 8,-166"/>
<text text-anchor="middle" x="397" y="-545.8" font-family="Times,serif" font-size="14.00">doorlopen van mogelijke bijgroenten</text>
</g>
<!-- start -->
<g id="node1" class="node">
<title>start</title>
<path fill="none" stroke="black" d="M536,-697C536,-697 506,-697 506,-697 500,-697 494,-691 494,-685 494,-685 494,-673 494,-673 494,-667 500,-661 506,-661 506,-661 536,-661 536,-661 542,-661 548,-667 548,-673 548,-673 548,-685 548,-685 548,-691 542,-697 536,-697"/>
<text text-anchor="middle" x="521" y="-675.3" font-family="Times,serif" font-size="14.00">start</text>
</g>
<!-- declareer_hoofdgroente -->
<g id="node2" class="node">
<title>declareer_hoofdgroente</title>
<polygon fill="none" stroke="green" points="664.5,-624 377.5,-624 377.5,-588 664.5,-588 664.5,-624"/>
<text text-anchor="middle" x="521" y="-602.3" font-family="Times,serif" font-size="14.00">declareer en initialiseer hoofdgroente</text>
</g>
<!-- start&#45;&gt;declareer_hoofdgroente -->
<g id="edge6" class="edge">
<title>start&#45;&gt;declareer_hoofdgroente</title>
<path fill="none" stroke="black" d="M521,-660.81C521,-652.79 521,-643.05 521,-634.07"/>
<polygon fill="black" stroke="black" points="524.5,-634.03 521,-624.03 517.5,-634.03 524.5,-634.03"/>
</g>
<!-- declareer_bijgroente -->
<g id="node6" class="node">
<title>declareer_bijgroente</title>
<polygon fill="none" stroke="green" points="653.5,-530 388.5,-530 388.5,-494 653.5,-494 653.5,-530"/>
<text text-anchor="middle" x="521" y="-508.3" font-family="Times,serif" font-size="14.00">declareer en initialiseer bijgroente</text>
</g>
<!-- declareer_hoofdgroente&#45;&gt;declareer_bijgroente -->
<g id="edge7" class="edge">
<title>declareer_hoofdgroente&#45;&gt;declareer_bijgroente</title>
<path fill="none" stroke="black" d="M521,-587.7C521,-574.46 521,-555.95 521,-540.66"/>
<polygon fill="black" stroke="black" points="524.5,-540.23 521,-530.23 517.5,-540.23 524.5,-540.23"/>
</g>
<!-- einde -->
<g id="node3" class="node">
<title>einde</title>
<path fill="none" stroke="black" d="M511,-36C511,-36 479,-36 479,-36 473,-36 467,-30 467,-24 467,-24 467,-12 467,-12 467,-6 473,0 479,0 479,0 511,0 511,0 517,0 523,-6 523,-12 523,-12 523,-24 523,-24 523,-30 517,-36 511,-36"/>
<text text-anchor="middle" x="495" y="-14.3" font-family="Times,serif" font-size="14.00">einde</text>
</g>
<!-- test_hoofdgroente -->
<g id="node4" class="node">
<title>test_hoofdgroente</title>
<polygon fill="none" stroke="red" points="495,-123 215.65,-105 495,-87 774.35,-105 495,-123"/>
<text text-anchor="middle" x="495" y="-101.3" font-family="Times,serif" font-size="14.00">hoofdgroente &lt; (int) Groenten.Pompoen</text>
</g>
<!-- test_hoofdgroente&#45;&gt;einde -->
<g id="edge10" class="edge">
<title>test_hoofdgroente&#45;&gt;einde</title>
<path fill="none" stroke="black" d="M495,-86.8C495,-75.16 495,-59.55 495,-46.24"/>
<polygon fill="black" stroke="black" points="498.5,-46.18 495,-36.18 491.5,-46.18 498.5,-46.18"/>
<text text-anchor="middle" x="532.5" y="-57.8" font-family="Times,serif" font-size="14.00">nee (false)</text>
</g>
<!-- verhoog_hoofdgroente -->
<g id="node5" class="node">
<title>verhoog_hoofdgroente</title>
<polygon fill="none" stroke="green" points="776,-36 602,-36 602,0 776,0 776,-36"/>
<text text-anchor="middle" x="689" y="-14.3" font-family="Times,serif" font-size="14.00">verhoog hoofdgroente</text>
</g>
<!-- test_hoofdgroente&#45;&gt;verhoog_hoofdgroente -->
<g id="edge11" class="edge">
<title>test_hoofdgroente&#45;&gt;verhoog_hoofdgroente</title>
<path fill="none" stroke="black" d="M529.24,-89C560.16,-75.45 605.99,-55.37 640.65,-40.18"/>
<polygon fill="black" stroke="black" points="642.35,-43.26 650.11,-36.04 639.54,-36.85 642.35,-43.26"/>
<text text-anchor="middle" x="632" y="-57.8" font-family="Times,serif" font-size="14.00">ja (true)</text>
</g>
<!-- verhoog_hoofdgroente&#45;&gt;declareer_bijgroente -->
<g id="edge12" class="edge">
<title>verhoog_hoofdgroente&#45;&gt;declareer_bijgroente</title>
<path fill="none" stroke="black" d="M744.42,-36.03C774.66,-49.13 806,-70.73 806,-104 806,-440 806,-440 806,-440 806,-472.57 735.04,-490.31 663.93,-499.92"/>
<polygon fill="black" stroke="black" points="663.37,-496.46 653.9,-501.22 664.27,-503.4 663.37,-496.46"/>
</g>
<!-- beslis_combinatie -->
<g id="node7" class="node">
<title>beslis_combinatie</title>
<polygon fill="none" stroke="red" points="397,-457 15.6,-439 397,-421 778.4,-439 397,-457"/>
<text text-anchor="middle" x="397" y="-435.3" font-family="Times,serif" font-size="14.00">is het een combinatie van twee verschillende groenten?</text>
</g>
<!-- declareer_bijgroente&#45;&gt;beslis_combinatie -->
<g id="edge3" class="edge">
<title>declareer_bijgroente&#45;&gt;beslis_combinatie</title>
<path fill="none" stroke="black" d="M491.3,-493.99C473.94,-484.05 451.88,-471.42 433.47,-460.88"/>
<polygon fill="black" stroke="black" points="435.18,-457.83 424.76,-455.89 431.7,-463.9 435.18,-457.83"/>
</g>
<!-- toon_combinatie -->
<g id="node8" class="node">
<title>toon_combinatie</title>
<polygon fill="none" stroke="blue" points="364.67,-370 166.35,-370 115.33,-334 313.65,-334 364.67,-370"/>
<text text-anchor="middle" x="240" y="-348.3" font-family="Times,serif" font-size="14.00">toon combinatie</text>
</g>
<!-- beslis_combinatie&#45;&gt;toon_combinatie -->
<g id="edge1" class="edge">
<title>beslis_combinatie&#45;&gt;toon_combinatie</title>
<path fill="none" stroke="black" d="M367.84,-422.21C343.22,-408.88 307.71,-389.66 280.36,-374.85"/>
<polygon fill="black" stroke="black" points="281.89,-371.7 271.43,-370.02 278.56,-377.86 281.89,-371.7"/>
<text text-anchor="middle" x="333.5" y="-391.8" font-family="Times,serif" font-size="14.00">ja</text>
</g>
<!-- verhoog_bijgroente -->
<g id="node9" class="node">
<title>verhoog_bijgroente</title>
<polygon fill="none" stroke="green" points="452,-283 300,-283 300,-247 452,-247 452,-283"/>
<text text-anchor="middle" x="376" y="-261.3" font-family="Times,serif" font-size="14.00">verhoog bijgroente</text>
</g>
<!-- beslis_combinatie&#45;&gt;verhoog_bijgroente -->
<g id="edge2" class="edge">
<title>beslis_combinatie&#45;&gt;verhoog_bijgroente</title>
<path fill="none" stroke="black" d="M394.91,-420.88C391.26,-391 383.71,-329.11 379.33,-293.27"/>
<polygon fill="black" stroke="black" points="382.77,-292.55 378.08,-283.05 375.82,-293.4 382.77,-292.55"/>
<text text-anchor="middle" x="401" y="-348.3" font-family="Times,serif" font-size="14.00">nee</text>
</g>
<!-- toon_combinatie&#45;&gt;verhoog_bijgroente -->
<g id="edge4" class="edge">
<title>toon_combinatie&#45;&gt;verhoog_bijgroente</title>
<path fill="none" stroke="black" d="M267.52,-333.8C288.35,-320.78 317.15,-302.78 339.84,-288.6"/>
<polygon fill="black" stroke="black" points="341.89,-291.44 348.52,-283.18 338.18,-285.51 341.89,-291.44"/>
</g>
<!-- test -->
<g id="node10" class="node">
<title>test</title>
<polygon fill="none" stroke="red" points="471,-210 211.6,-192 471,-174 730.4,-192 471,-210"/>
<text text-anchor="middle" x="471" y="-188.3" font-family="Times,serif" font-size="14.00">bijgroente &lt; (int) Groenten.Pompoen</text>
</g>
<!-- verhoog_bijgroente&#45;&gt;test -->
<g id="edge5" class="edge">
<title>verhoog_bijgroente&#45;&gt;test</title>
<path fill="none" stroke="black" d="M399,-246.81C411.91,-237.16 428.15,-225.02 441.94,-214.72"/>
<polygon fill="black" stroke="black" points="444.24,-217.37 450.16,-208.58 440.05,-211.76 444.24,-217.37"/>
</g>
<!-- test&#45;&gt;test_hoofdgroente -->
<g id="edge9" class="edge">
<title>test&#45;&gt;test_hoofdgroente</title>
<path fill="none" stroke="black" d="M475.74,-174.21C479.09,-162.33 483.66,-146.17 487.5,-132.56"/>
<polygon fill="black" stroke="black" points="490.92,-133.33 490.27,-122.76 484.18,-131.43 490.92,-133.33"/>
<text text-anchor="middle" x="521.5" y="-144.8" font-family="Times,serif" font-size="14.00">nee (false)</text>
</g>
<!-- test&#45;&gt;beslis_combinatie -->
<g id="edge8" class="edge">
<title>test&#45;&gt;beslis_combinatie</title>
<path fill="none" stroke="black" d="M470.52,-210.18C469.68,-228.48 467.37,-258.18 461,-283 448.86,-330.33 425.13,-382.22 410.22,-412.35"/>
<polygon fill="black" stroke="black" points="407.07,-410.83 405.72,-421.34 413.33,-413.96 407.07,-410.83"/>
<text text-anchor="middle" x="484" y="-304.8" font-family="Times,serif" font-size="14.00">ja (true)</text>
</g>
</g>
</svg>
