<?xml version="1.0" encoding="UTF-8" standalone="no"?>
<!DOCTYPE svg PUBLIC "-//W3C//DTD SVG 1.1//EN"
 "http://www.w3.org/Graphics/SVG/1.1/DTD/svg11.dtd">
<!-- Generated by graphviz version 2.43.0 (0)
 -->
<!-- Title: %3 Pages: 1 -->
<svg width="857pt" height="705pt"
 viewBox="0.00 0.00 857.00 705.00" xmlns="http://www.w3.org/2000/svg" xmlns:xlink="http://www.w3.org/1999/xlink">
<g id="graph0" class="graph" transform="scale(1 1) rotate(0) translate(4 701)">
<title>%3</title>
<polygon fill="white" stroke="transparent" points="-4,4 -4,-701 853,-701 853,4 -4,4"/>
<g id="clust1" class="cluster">
<title>cluster_inner</title>
<polygon fill="none" stroke="lightgrey" points="8,-166 8,-561 786,-561 786,-166 8,-166"/>
<text text-anchor="middle" x="397" y="-545.8" font-family="Times,serif" font-size="14.00">doorlopen van mogelijke bijgroenten</text>
</g>
<!-- start -->
<g id="node1" class="node">
<title>start</title>
<path fill="none" stroke="black" d="M536,-697C536,-697 506,-697 506,-697 500,-697 494,-691 494,-685 494,-685 494,-673 494,-673 494,-667 500,-661 506,-661 506,-661 536,-661 536,-661 542,-661 548,-667 548,-673 548,-673 548,-685 548,-685 548,-691 542,-697 536,-697"/>
<text text-anchor="middle" x="521" y="-675.3" font-family="Times,serif" font-size="14.00">start</text>
</g>
<!-- declareer_hoofdgroente -->
<g id="node2" class="node">
<title>declareer_hoofdgroente</title>
<polygon fill="none" stroke="green" points="664.5,-624 377.5,-624 377.5,-588 664.5,-588 664.5,-624"/>
<text text-anchor="middle" x="521" y="-602.3" font-family="Times,serif" font-size="14.00">declareer en initialiseer hoofdgroente</text>
</g>
<!-- start&#45;&gt;declareer_hoofdgroente -->
<g id="edge6" class="edge">
<title>start&#45;&gt;declareer_hoofdgroente</title>
<path fill="none" stroke="black" d="M521,-660.81C521,-652.79 521,-643.05 521,-634.07"/>
<polygon fill="black" stroke="black" points="524.5,-634.03 521,-624.03 517.5,-634.03 524.5,-634.03"/>
</g>
<!-- declareer_bijgroente -->
<g id="node6" class="node">
<title>declareer_bijgroente</title>
<polygon fill="none" stroke="green" points="653.5,-530 388.5,-530 388.5,-494 653.5,-494 653.5,-530"/>
<text text-anchor="middle" x="521" y="-508.3" font-family="Times,serif" font-size="14.00">declareer en initialiseer bijgroente</text>
</g>
<!-- declareer_hoofdgroente&#45;&gt;declareer_bijgroente -->
<g id="edge7" class="edge">
<title>declareer_hoofdgroente&#45;&gt;declareer_bijgroente</title>
<path fill="none" stroke="black" d="M521,-587.7C521,-574.46 521,-555.95 521,-540.66"/>
<polygon fill="black" stroke="black" points="524.5,-540.23 521,-530.23 517.5,-540.23 524.5,-540.23"/>
</g>
<!-- einde -->
<g id="node3" class="node">
<title>einde</title>
<path fill="none" stroke="black" d="M601,-36C601,-36 569,-36 569,-36 563,-36 557,-30 557,-24 557,-24 557,-12 557,-12 557,-6 563,0 569,0 569,0 601,0 601,0 607,0 613,-6 613,-12 613,-12 613,-24 613,-24 613,-30 607,-36 601,-36"/>
<text text-anchor="middle" x="585" y="-14.3" font-family="Times,serif" font-size="14.00">einde</text>
</g>
<!-- test_hoofdgroente -->
<g id="node4" class="node">
<title>test_hoofdgroente</title>
<polygon fill="none" stroke="red" points="585,-123 454.46,-105 585,-87 715.54,-105 585,-123"/>
<text text-anchor="middle" x="585" y="-101.3" font-family="Times,serif" font-size="14.00">hoofdgroente &lt; 6</text>
</g>
<!-- test_hoofdgroente&#45;&gt;einde -->
<g id="edge10" class="edge">
<title>test_hoofdgroente&#45;&gt;einde</title>
<path fill="none" stroke="black" d="M585,-86.8C585,-75.16 585,-59.55 585,-46.24"/>
<polygon fill="black" stroke="black" points="588.5,-46.18 585,-36.18 581.5,-46.18 588.5,-46.18"/>
<text text-anchor="middle" x="622.5" y="-57.8" font-family="Times,serif" font-size="14.00">nee (false)</text>
</g>
<!-- verhoog_hoofdgroente -->
<g id="node5" class="node">
<title>verhoog_hoofdgroente</title>
<polygon fill="none" stroke="green" points="849,-36 675,-36 675,0 849,0 849,-36"/>
<text text-anchor="middle" x="762" y="-14.3" font-family="Times,serif" font-size="14.00">verhoog hoofdgroente</text>
</g>
<!-- test_hoofdgroente&#45;&gt;verhoog_hoofdgroente -->
<g id="edge11" class="edge">
<title>test_hoofdgroente&#45;&gt;verhoog_hoofdgroente</title>
<path fill="none" stroke="black" d="M615.19,-91.09C629.99,-84.64 648.02,-76.61 664,-69 682.62,-60.13 702.98,-49.85 720.28,-40.92"/>
<polygon fill="black" stroke="black" points="722.29,-43.82 729.56,-36.12 719.07,-37.61 722.29,-43.82"/>
<text text-anchor="middle" x="722" y="-57.8" font-family="Times,serif" font-size="14.00">ja (true)</text>
</g>
<!-- verhoog_hoofdgroente&#45;&gt;declareer_bijgroente -->
<g id="edge12" class="edge">
<title>verhoog_hoofdgroente&#45;&gt;declareer_bijgroente</title>
<path fill="none" stroke="black" d="M777.14,-36.22C789.87,-52.52 806,-78.24 806,-104 806,-440 806,-440 806,-440 806,-472.57 735.04,-490.31 663.93,-499.92"/>
<polygon fill="black" stroke="black" points="663.37,-496.46 653.9,-501.22 664.27,-503.4 663.37,-496.46"/>
</g>
<!-- beslis_combinatie -->
<g id="node7" class="node">
<title>beslis_combinatie</title>
<polygon fill="none" stroke="red" points="397,-457 15.6,-439 397,-421 778.4,-439 397,-457"/>
<text text-anchor="middle" x="397" y="-435.3" font-family="Times,serif" font-size="14.00">is het een combinatie van twee verschillende groenten?</text>
</g>
<!-- declareer_bijgroente&#45;&gt;beslis_combinatie -->
<g id="edge3" class="edge">
<title>declareer_bijgroente&#45;&gt;beslis_combinatie</title>
<path fill="none" stroke="black" d="M491.3,-493.99C473.94,-484.05 451.88,-471.42 433.47,-460.88"/>
<polygon fill="black" stroke="black" points="435.18,-457.83 424.76,-455.89 431.7,-463.9 435.18,-457.83"/>
</g>
<!-- toon_combinatie -->
<g id="node8" class="node">
<title>toon_combinatie</title>
<polygon fill="none" stroke="blue" points="377.67,-370 179.35,-370 128.33,-334 326.65,-334 377.67,-370"/>
<text text-anchor="middle" x="253" y="-348.3" font-family="Times,serif" font-size="14.00">toon combinatie</text>
</g>
<!-- beslis_combinatie&#45;&gt;toon_combinatie -->
<g id="edge1" class="edge">
<title>beslis_combinatie&#45;&gt;toon_combinatie</title>
<path fill="none" stroke="black" d="M370.25,-422.21C347.87,-409 315.67,-389.99 290.68,-375.24"/>
<polygon fill="black" stroke="black" points="292.22,-372.09 281.83,-370.02 288.66,-378.11 292.22,-372.09"/>
<text text-anchor="middle" x="339.5" y="-391.8" font-family="Times,serif" font-size="14.00">ja</text>
</g>
<!-- verhoog_bijgroente -->
<g id="node9" class="node">
<title>verhoog_bijgroente</title>
<polygon fill="none" stroke="green" points="465,-283 313,-283 313,-247 465,-247 465,-283"/>
<text text-anchor="middle" x="389" y="-261.3" font-family="Times,serif" font-size="14.00">verhoog bijgroente</text>
</g>
<!-- beslis_combinatie&#45;&gt;verhoog_bijgroente -->
<g id="edge2" class="edge">
<title>beslis_combinatie&#45;&gt;verhoog_bijgroente</title>
<path fill="none" stroke="black" d="M396.2,-420.88C394.81,-391 391.94,-329.11 390.27,-293.27"/>
<polygon fill="black" stroke="black" points="393.75,-292.88 389.79,-283.05 386.76,-293.2 393.75,-292.88"/>
<text text-anchor="middle" x="406" y="-348.3" font-family="Times,serif" font-size="14.00">nee</text>
</g>
<!-- toon_combinatie&#45;&gt;verhoog_bijgroente -->
<g id="edge4" class="edge">
<title>toon_combinatie&#45;&gt;verhoog_bijgroente</title>
<path fill="none" stroke="black" d="M280.52,-333.8C301.35,-320.78 330.15,-302.78 352.84,-288.6"/>
<polygon fill="black" stroke="black" points="354.89,-291.44 361.52,-283.18 351.18,-285.51 354.89,-291.44"/>
</g>
<!-- test -->
<g id="node10" class="node">
<title>test</title>
<polygon fill="none" stroke="red" points="484,-210 373.9,-192 484,-174 594.1,-192 484,-210"/>
<text text-anchor="middle" x="484" y="-188.3" font-family="Times,serif" font-size="14.00">bijgroente &lt; 6</text>
</g>
<!-- verhoog_bijgroente&#45;&gt;test -->
<g id="edge5" class="edge">
<title>verhoog_bijgroente&#45;&gt;test</title>
<path fill="none" stroke="black" d="M412,-246.81C425.46,-236.75 442.53,-223.99 456.68,-213.42"/>
<polygon fill="black" stroke="black" points="459.13,-215.96 465.05,-207.17 454.94,-210.35 459.13,-215.96"/>
</g>
<!-- test&#45;&gt;test_hoofdgroente -->
<g id="edge9" class="edge">
<title>test&#45;&gt;test_hoofdgroente</title>
<path fill="none" stroke="black" d="M501.13,-176.58C517.14,-163.11 541.25,-142.82 559.51,-127.45"/>
<polygon fill="black" stroke="black" points="562.05,-129.89 567.44,-120.78 557.54,-124.54 562.05,-129.89"/>
<text text-anchor="middle" x="577.5" y="-144.8" font-family="Times,serif" font-size="14.00">nee (false)</text>
</g>
<!-- test&#45;&gt;beslis_combinatie -->
<g id="edge8" class="edge">
<title>test&#45;&gt;beslis_combinatie</title>
<path fill="none" stroke="black" d="M483.86,-210.27C483.3,-228.65 481.23,-258.41 474,-283 459.79,-331.33 431.17,-382.84 413.11,-412.63"/>
<polygon fill="black" stroke="black" points="410.12,-410.8 407.87,-421.15 416.09,-414.47 410.12,-410.8"/>
<text text-anchor="middle" x="496" y="-304.8" font-family="Times,serif" font-size="14.00">ja (true)</text>
</g>
</g>
</svg>
